<svg t="1584518139045" class="icon" viewBox="0 0 1024 1024" version="1.1" xmlns="http://www.w3.org/2000/svg" p-id="2663" width="200" height="200"><path d="M987.729935 686.024475 987.729935 307.611983l0-0.079818c0-43.560098-35.090193-78.906118-78.550007-79.351256l-0.037862-0.041956L115.939569 228.138954c-0.095167 0-0.201591-0.005117-0.295735-0.005117-0.085958 0-0.170892 0.005117-0.255827 0.005117l-0.689708 0-0.016373 0.020466c-43.390229 0.514723-78.405721 35.823903-78.416977 79.33693l-0.016373 0.016373 0 386.882398 0.041956 0.037862c0.011256 43.608194 35.181267 78.990029 78.715783 79.346139l0.005117 0.011256 0.355087 0c0.102331 0 0.202615 0.011256 0.297782 0.011256 0.122797 0 0.239454-0.011256 0.356111-0.011256l791.743262-0.005117c0.200568 0 0.409322 0.011256 0.615007 0.011256 43.837414 0 79.373769-35.541471 79.373769-79.378885C987.751425 691.592284 987.751425 688.789449 987.729935 686.024475zM310.264393 393.682267c-20.965497-11.617595-44.014446-17.428951-69.1448-17.428951-32.709983 0-59.358923 10.893094-79.942727 32.67826-20.585851 21.786189-30.878265 51.181683-30.878265 88.183412 0 35.111682 9.595542 62.98859 28.794813 83.637886 19.196201 20.648272 44.328601 30.972409 75.397201 30.972409 29.045523 0 54.30379-6.564509 75.774801-19.701714l0 36.372396c-21.595854 11.366885-48.685839 17.049305-81.268932 17.049305-42.054815 0-75.650981-13.355169-100.781334-40.066531-25.133424-26.710338-37.6986-62.039985-37.6986-105.990986 0-47.232744 14.143115-85.247546 42.434461-114.042359 28.288277-28.794813 64.219627-43.191708 107.789958-43.191708 28.036543 0 51.211359 3.978614 69.524446 11.93482L310.265416 393.682267zM672.090115 640.521119l-37.696554 0L634.393561 446.156386c0-16.037255 0.947582-35.297924 2.841721-57.778938l-0.947582 0c-3.287883 14.145162-6.191003 23.99653-8.714476 29.55206l-96.804766 222.590588L509.74361 640.520095l-96.614431-220.884736c-2.273786-5.050016-5.179976-15.46932-8.714476-31.257911l-1.136893 0c1.260713 13.639648 1.89414 33.468253 1.89414 59.483766L405.171949 640.521119l-36.183084 0L368.988866 347.080903l51.338249 0 86.573751 201.184045c6.564509 15.408945 10.921747 27.406187 13.07069 35.992749l1.327228 0c6.564509-18.059308 11.17655-30.31033 13.827937-36.749996l88.090291-200.425775 48.873104 0L672.090115 640.521119zM886.726543 624.796996c-18.692734 13.766538-44.645826 20.648272-77.859275 20.648272-11.621688 0-25.166169-1.609661-40.635489-4.831029-15.471366-3.220345-26.742061-7.228635-33.81413-12.028964l0-43.191708c8.965186 7.832386 20.961404 14.272052 35.992749 19.322068 15.028275 5.054109 29.29828 7.578606 42.814108 7.578606 41.169655 0 61.756529-14.648628 61.756529-43.949978 0-8.208962-2.210341-15.59621-6.630001-22.164812-4.421706-6.564509-10.483772-12.374842-18.186198-17.428951-7.704472-5.050016-22.163789-12.81691-43.382043-23.300682-29.42824-14.648628-48.812729-28.255531-58.157561-40.823777-9.346879-12.564154-14.017248-26.929326-14.017248-43.097564 0-24.372084 9.784854-43.695175 29.362748-57.96825 19.573801-14.270005 44.26311-21.406542 74.069973-21.406542 29.173436 0 50.579979 3.53757 64.22065 10.608615l0 41.297568c-17.683754-12.248975-40.036855-18.375509-67.062372-18.375509-17.934464 0-32.553417 3.759627-43.853787 11.271718-11.304464 7.515161-16.95516 17.96721-16.95516 31.352055 0 11.872399 3.913123 21.533432 11.744485 28.983101 7.829316 7.453762 24.816199 17.618263 50.958602 30.499641 28.794813 13.766538 48.936549 27.533077 60.431348 41.296545 11.491729 13.767562 17.238616 29.239951 17.238616 46.413076C914.762063 591.266321 905.415185 611.033527 886.726543 624.796996z" p-id="2664"></path></svg>
