<svg xmlns:xlink="http://www.w3.org/1999/xlink" id="图层_1" data-name="图层 1" xmlns="http://www.w3.org/2000/svg"
     viewBox="0 0 1117.33 1080">
  <defs>
    <style>
      .cls-1{fill:url(#未命名的渐变_29);}.cls-2{fill:url(#未命名的渐变_22);}.cls-3{fill:url(#未命名的渐变_38);}.cls-4{fill:url(#未命名的渐变_18);}.cls-5{fill:url(#未命名的渐变_18-2);}.cls-6{fill:url(#未命名的渐变_22-2);}
    </style>
    <linearGradient id="未命名的渐变_29" x1="1423.1" y1="-326.4" x2="1694.74" y2="-598.04"
                    gradientTransform="matrix(0.71, -0.37, 0.71, 0.37, -260.4, 1328.88)" gradientUnits="userSpaceOnUse">
      <stop offset="0.01" stop-color="#1586ff"/>
      <stop offset="1" stop-color="#00c9ff"/>
    </linearGradient>
    <linearGradient id="未命名的渐变_22" x1="435.17" y1="546.04" x2="435.17" y2="218.93" gradientUnits="userSpaceOnUse">
      <stop offset="0" stop-color="#1290ff"/>
      <stop offset="1" stop-color="#00c9ff"/>
    </linearGradient>
    <linearGradient id="未命名的渐变_38" x1="720.79" y1="510.07" x2="720.79" y2="290.52" gradientUnits="userSpaceOnUse">
      <stop offset="0" stop-color="#00c9ff"/>
      <stop offset="0.49" stop-color="#01c7ff"/>
      <stop offset="0.66" stop-color="#03c0ff"/>
      <stop offset="0.79" stop-color="#06b5ff"/>
      <stop offset="0.89" stop-color="#0ca4ff"/>
      <stop offset="0.97" stop-color="#138eff"/>
      <stop offset="1" stop-color="#1586ff"/>
    </linearGradient>
    <linearGradient id="未命名的渐变_18" x1="752.08" y1="546.04" x2="752.08" y2="262.91" gradientUnits="userSpaceOnUse">
      <stop offset="0" stop-color="#00c9ff"/>
      <stop offset="1" stop-color="#1586ff"/>
    </linearGradient>
    <linearGradient id="未命名的渐变_18-2" x1="415.78" y1="703.88" x2="894.28" y2="703.88" xlink:href="#未命名的渐变_18"/>
    <linearGradient id="未命名的渐变_22-2" x1="431.55" y1="903.05" x2="431.55" y2="546.04" xlink:href="#未命名的渐变_22"/>
  </defs>
  <title>logo</title>
  <rect class="cls-1" x="442.95" y="481.18" width="144.26" height="200.86"
        transform="translate(562.13 -193.87) rotate(45)"/>
  <polygon class="cls-2" points="533.8 219.71 207.47 546.04 335.75 546.04 662.86 218.93 533.8 219.71"/>
  <polygon class="cls-3" points="832.76 290.52 704.16 290.52 608.81 385.87 707.37 385.87 832.76 290.52"/>
  <polygon class="cls-4"
           points="706.8 385.87 608.81 385.87 767.07 545.71 766.73 546.04 895.01 546.04 895.34 545.71 706.8 385.87"/>
  <polygon class="cls-5" points="894.28 546.69 766 546.69 451.62 861.07 655.64 861.07 894.28 546.69"/>
  <polygon class="cls-6"
           points="335.96 546.3 336.21 546.04 207.93 546.04 207.47 546.51 450.03 861.07 655.64 861.07 335.96 546.3"/>
</svg>
